<?xml version="1.0" encoding="iso-8859-1"?>
<!-- Generator: Adobe Illustrator 19.0.0, SVG Export Plug-In . SVG Version: 6.00 Build 0)  -->
<svg version="1.1" id="Capa_1" xmlns="http://www.w3.org/2000/svg" xmlns:xlink="http://www.w3.org/1999/xlink" x="0px" y="0px"
	 viewBox="0 0 381.12 381.12" style="enable-background:new 0 0 381.12 381.12;" xml:space="preserve">
<g>
	<path style="fill:#ffffff;" d="M249.04,92.453h-2.4c-36.32,0-48,34.64-48.72,36.08c-1.073,3.29-4.139,5.517-7.6,5.52
		c-3.461-0.003-6.527-2.23-7.6-5.52c-0.08-1.92-12.08-36.16-48.08-36.16h-2.16c-18.844,0.68-36.345,9.931-47.52,25.12
		c-10.847,13.896-14.764,31.981-10.64,49.12c8,29.28,32,51.52,57.04,75.12c8.56,8,17.36,16,25.76,24.8
		c14.32,14.8,26.64,28,33.52,35.44c6.88-7.52,19.12-20.64,33.52-35.44c8-8.64,17.2-16.88,25.76-24.8
		c25.36-23.6,49.36-45.84,57.04-75.12c4.191-17.103,0.363-35.183-10.4-49.12C285.361,102.344,267.867,93.126,249.04,92.453z
		 M134.16,124.453c-7.261-0.984-14.631,0.723-20.72,4.8c-5.177,4.739-8.087,11.462-8,18.48c-0.295,4.198-3.791,7.45-8,7.44h-0.56
		c-4.39-0.299-7.714-4.088-7.44-8.48c0.135-11.565,5.27-22.506,14.08-30c9.616-6.793,21.464-9.655,33.12-8
		c4.418,0.685,7.445,4.822,6.76,9.24c-0.685,4.418-4.822,7.445-9.24,6.76l0,0V124.453z"/>
	<path style="fill:#ffffff;" d="M381.12,190.613C381.149,85.37,295.856,0.029,190.613,0C85.369-0.029,0.029,85.264,0,190.507
		C-0.029,295.751,85.264,381.091,190.507,381.12c39.953,0.011,78.9-12.536,111.333-35.867l75.6,30.08l-24.96-84.24
		C371.249,260.943,381.172,226.128,381.12,190.613L381.12,190.613z M322.4,170.613c-8.8,33.76-34.48,57.6-61.6,82.8
		c-8.4,8-17.12,16-25.2,24c-21.92,22.56-38.88,41.36-39.04,41.52c-2.972,3.27-8.031,3.511-11.301,0.539
		c-0.188-0.171-0.368-0.351-0.539-0.539c0,0-17.12-18.96-39.04-41.52c-8-8-16.8-16-25.2-24c-27.2-25.2-52.8-49.04-61.68-82.8
		c-5.433-21.802-0.632-44.891,13.04-62.72c14.076-19.064,36.078-30.668,59.76-31.52c23.951-0.939,46.537,11.149,59.04,31.6
		c12.491-20.464,35.085-32.557,59.04-31.6c23.682,0.852,45.684,12.456,59.76,31.52C323.085,125.736,327.855,148.824,322.4,170.613
		L322.4,170.613z"/>
</g>
<g>
</g>
<g>
</g>
<g>
</g>
<g>
</g>
<g>
</g>
<g>
</g>
<g>
</g>
<g>
</g>
<g>
</g>
<g>
</g>
<g>
</g>
<g>
</g>
<g>
</g>
<g>
</g>
<g>
</g>
</svg>
